HIERARCHY
ROOT Hips
{
  OFFSET 0.0273292 -0.436096 0.279869
  CHANNELS 6 Xposition Yposition Zposition Zrotation Xrotation Yrotation
  JOINT LHipJoint
  {
    OFFSET 0 0 0
    CHANNELS 6 Xposition Yposition Zposition Zrotation Xrotation Yrotation
    JOINT LeftUpLeg
    {
      OFFSET 1.36306 -1.79463 0
      CHANNELS 6 Xposition Yposition Zposition Zrotation Xrotation Yrotation
      JOINT LeftLeg
      {
        OFFSET 2.44807 -6.72613 0.000295034
        CHANNELS 6 Xposition Yposition Zposition Zrotation Xrotation Yrotation
        JOINT LeftFoot
        {
          OFFSET 2.5622 -7.03959 3.59965e-05
          CHANNELS 6 Xposition Yposition Zposition Zrotation Xrotation Yrotation
          JOINT LeftToeBase
          {
            OFFSET 0.15764 -0.43311 2.32255
            CHANNELS 6 Xposition Yposition Zposition Zrotation Xrotation Yrotation
            End Site
            {
              OFFSET 0 0 0
            }
          }
        }
      }
    }
  }
  JOINT RHipJoint
  {
    OFFSET 0 0 0
    CHANNELS 6 Xposition Yposition Zposition Zrotation Xrotation Yrotation
    JOINT RightUpLeg
    {
      OFFSET -1.30552 -1.79463 0
      CHANNELS 6 Xposition Yposition Zposition Zrotation Xrotation Yrotation
      JOINT RightLeg
      {
        OFFSET -2.54234 -6.98562 -0.000396375
        CHANNELS 6 Xposition Yposition Zposition Zrotation Xrotation Yrotation
        JOINT RightFoot
        {
          OFFSET -2.56826 -7.05623 -4.47982e-05
          CHANNELS 6 Xposition Yposition Zposition Zrotation Xrotation Yrotation
          JOINT RightToeBase
          {
            OFFSET -0.16473 -0.45259 2.36315
            CHANNELS 6 Xposition Yposition Zposition Zrotation Xrotation Yrotation
            End Site
            {
              OFFSET 0 0 0
            }
          }
        }
      }
    }
  }
  JOINT LowerBack
  {
    OFFSET 0 0 0
    CHANNELS 6 Xposition Yposition Zposition Zrotation Xrotation Yrotation
    JOINT Spine
    {
      OFFSET 0.0282699 2.03559 0
      CHANNELS 6 Xposition Yposition Zposition Zrotation Xrotation Yrotation
      JOINT Spine1
      {
        OFFSET 0.05672 2.04885 -0.04275
        CHANNELS 6 Xposition Yposition Zposition Zrotation Xrotation Yrotation
        JOINT Neck
        {
          OFFSET 0 0 0
          CHANNELS 6 Xposition Yposition Zposition Zrotation Xrotation Yrotation
          JOINT Neck1
          {
            OFFSET -0.05417 1.74624 0.17202
            CHANNELS 6 Xposition Yposition Zposition Zrotation Xrotation Yrotation
            JOINT Head
            {
              OFFSET 0.10407 1.76136 -0.12397
              CHANNELS 6 Xposition Yposition Zposition Zrotation Xrotation Yrotation
              End Site
              {
                OFFSET 0 0 0
              }
            }
          }
        }
        JOINT LeftShoulder
        {
          OFFSET 0 0 0
          CHANNELS 6 Xposition Yposition Zposition Zrotation Xrotation Yrotation
          JOINT LeftArm
          {
            OFFSET 3.36241 1.20089 -0.311211
            CHANNELS 6 Xposition Yposition Zposition Zrotation Xrotation Yrotation
            JOINT LeftForeArm
            {
              OFFSET 4.983 0.000197398 0.000166057
              CHANNELS 6 Xposition Yposition Zposition Zrotation Xrotation Yrotation
              JOINT LeftHand
              {
                OFFSET 3.48356 0 1.87849e-05
                CHANNELS 6 Xposition Yposition Zposition Zrotation Xrotation Yrotation
                JOINT LeftFingerBase
                {
                  OFFSET 0 0 0
                  CHANNELS 6 Xposition Yposition Zposition Zrotation Xrotation Yrotation
                  JOINT LeftHandIndex1
                  {
                    OFFSET 0.71526 0 0
                    CHANNELS 6 Xposition Yposition Zposition Zrotation Xrotation Yrotation
                    End Site
                    {
                      OFFSET 0 0 0
                    }
                  }
                }
                JOINT LThumb
                {
                  OFFSET 0 0 0
                  CHANNELS 6 Xposition Yposition Zposition Zrotation Xrotation Yrotation
                  End Site
                  {
                    OFFSET 0 0 0
                  }
                }
              }
            }
          }
        }
        JOINT RightShoulder
        {
          OFFSET 0 0 0
          CHANNELS 6 Xposition Yposition Zposition Zrotation Xrotation Yrotation
          JOINT RightArm
          {
            OFFSET -3.1366 1.37405 -0.404651
            CHANNELS 6 Xposition Yposition Zposition Zrotation Xrotation Yrotation
            JOINT RightForeArm
            {
              OFFSET -5.2419 -5.8808e-05 -0.000165864
              CHANNELS 6 Xposition Yposition Zposition Zrotation Xrotation Yrotation
              JOINT RightHand
              {
                OFFSET -3.44417 0 -2.00002e-05
                CHANNELS 6 Xposition Yposition Zposition Zrotation Xrotation Yrotation
                JOINT RightFingerBase
                {
                  OFFSET 0 0 0
                  CHANNELS 6 Xposition Yposition Zposition Zrotation Xrotation Yrotation
                  JOINT RightHandIndex1
                  {
                    OFFSET -0.62253 0 0
                    CHANNELS 6 Xposition Yposition Zposition Zrotation Xrotation Yrotation
                    End Site
                    {
                      OFFSET 0 0 0
                    }
                  }
                }
                JOINT RThumb
                {
                  OFFSET 0 0 0
                  CHANNELS 6 Xposition Yposition Zposition Zrotation Xrotation Yrotation
                  End Site
                  {
                    OFFSET 0 0 0
                  }
                }
              }
            }
          }
        }
      }
    }
  }
}
MOTION
Frames:	7
Frame Time:	0.00833333
-0.00104365 1.77805 0.265732 -1.67068 7.88669 -6.29982 0 0 0 6.95746e-16 -1.59028e-15 -7.95139e-16 1.36306 -1.79463 -7.58326e-08 -17.5227 -49.9736 -12.6626 2.44818 -6.7261 -7.42437e-05 -120.062 53.708 154.479 2.5622 -7.0396 -5.86991e-06 6.66381 7.41901 4.39413 0.15764 -0.43311 2.32255 3.18055e-15 -3.97569e-16 1.2921e-15 0 0 0 6.95746e-16 -1.59028e-15 -7.95139e-16 -1.30552 -1.79463 -8.06114e-08 23.831 -3.99441 -2.88274 -2.54252 -6.98555 -0.000114837 1.07777 39.177 -4.6085 -2.56825 -7.05623 -3.97964e-05 -3.75006 -8.24211 9.68556 -0.16473 -0.45259 2.36315 -7.95139e-16 3.18055e-15 -2.38542e-15 0 0 0 6.95746e-16 -1.59028e-15 -7.95139e-16 0.0282698 2.03559 3.27936e-08 -0.708078 13.5148 14.7 0.05672 2.04885 -0.04275 -4.41391e-32 -3.18055e-15 -7.95139e-16 0 0 0 -3.97569e-16 -3.18055e-15 -0 -0.0541701 1.74624 0.17202 -0.287022 -20.1215 -2.247 0.10407 1.76136 -0.12397 7.45443e-17 -1.98785e-16 -2.38542e-15 0 0 0 -3.97569e-16 -3.18055e-15 -0 3.36241 1.20089 -0.311209 -75.1565 22.5963 46.1127 4.983 5.70909e-05 3.1249e-05 1.69547 1.14477 -64.138 3.48356 -2.2261e-06 -2.48586e-05 1.59026e-15 3.18055e-15 0.000373833 0 0 0 1.59028e-15 0 2.38542e-15 0.71526 8.88178e-16 0 1.59028e-15 0 1.59028e-15 0 0 0 1.59028e-15 0 2.38542e-15 0 0 0 -3.97569e-16 -3.18055e-15 -0 -3.1366 1.37405 -0.404649 59.211 3.99523 33.9756 -5.2419 0.00185088 -0.000159433 -2.12442 1.24546 84.1583 -3.44417 -4.37204e-06 1.36871e-05 6.14717e-05 -6.06792e-05 0.00023871 0 0 0 -3.18055e-15 7.95139e-16 -1.59028e-15 -0.62253 0 -2.22045e-16 -3.18055e-15 3.18055e-15 -1.59028e-15 0 0 0 -3.18055e-15 7.95139e-16 -1.59028e-15 
-0.011058 1.81064 0.326357 -1.32761 8.19365 -6.21464 0 0 0 5.96354e-16 -1.59028e-15 7.95139e-16 1.36306 -1.79463 -7.58326e-08 -22.3676 -53.1717 -19.6067 2.44818 -6.7261 -7.42437e-05 -113.412 53.9131 146.611 2.5622 -7.0396 -5.86991e-06 9.07793 8.49899 4.15033 0.15764 -0.43311 2.32255 -0 0 7.95139e-16 0 0 0 5.96354e-16 -1.59028e-15 7.95139e-16 -1.30552 -1.79463 -8.06114e-08 23.5882 0.143127 -3.42661 -2.54252 -6.98555 -0.000114837 -0.781887 36.716 -2.54928 -2.56825 -7.05623 -3.97964e-05 -3.73943 -1.98434 7.80116 -0.16473 -0.45259 2.36315 7.06225e-31 -1.27222e-14 3.18055e-15 0 0 0 5.96354e-16 -1.59028e-15 7.95139e-16 0.0282698 2.03559 3.27936e-08 -1.25687 12.8461 15.6566 0.05672 2.04885 -0.04275 -0 -6.36111e-15 -0 0 0 0 3.97569e-16 -6.36111e-15 -0 -0.0541701 1.74624 0.17202 -0.371809 -19.6656 -2.54624 0.10407 1.76136 -0.12397 -3.72721e-16 -1.98785e-16 -1.59028e-15 0 0 0 3.97569e-16 -6.36111e-15 -0 3.36241 1.20089 -0.311209 -74.347 22.9928 51.9654 4.983 5.70909e-05 3.1249e-05 1.98334 1.22163 -69.0562 3.48356 -2.2261e-06 -2.48586e-05 -0.546631 0.780755 0.29123 0 0 0 1.59028e-15 0 -0 0.71526 0 0 -1.59028e-15 -3.18055e-15 -7.95139e-16 0 0 0 1.59028e-15 0 -0 0 0 0 3.97569e-16 -6.36111e-15 -0 -3.1366 1.37405 -0.404649 56.9804 4.07241 33.6091 -5.2419 0.00185088 -0.000159433 -3.31514 5.76282 86.276 -3.44417 -4.37204e-06 1.36871e-05 -0.33514 1.00121 2.91393 0 0 0 -6.36111e-15 3.18055e-15 -0 -0.62253 0 -2.22045e-16 -3.18055e-15 -1.59028e-15 -6.36111e-15 0 0 0 -6.36111e-15 3.18055e-15 -0 
-0.0346567 1.88914 0.353161 -0.612493 8.33061 -5.98978 0 0 0 -3.97569e-16 3.18055e-15 -0 1.36306 -1.79463 -7.58326e-08 -25.2182 -54.6338 -23.4066 2.44818 -6.7261 -7.42437e-05 -105.362 56.8505 137.947 2.5622 -7.0396 -5.86991e-06 10.3986 9.05883 3.53372 0.15764 -0.43311 2.32255 1.59028e-15 0 7.95139e-16 0 0 0 -3.97569e-16 3.18055e-15 -0 -1.30552 -1.79463 -8.06114e-08 22.9082 3.91774 -4.73524 -2.54252 -6.98555 -0.000114837 -2.30211 31.1864 -0.804739 -2.56825 -7.05623 -3.97964e-05 -1.6248 4.65572 3.60981 -0.16473 -0.45259 2.36315 -7.95139e-16 6.36111e-15 -0 0 0 0 -3.97569e-16 3.18055e-15 -0 0.0282698 2.03559 3.27936e-08 -2.05419 11.3916 16.0693 0.05672 2.04885 -0.04275 -3.97569e-16 0 -1.59028e-15 0 0 0 -7.95139e-16 0 -0 -0.0541701 1.74624 0.17202 -0.353996 -18.6029 -2.62984 0.10407 1.76136 -0.12397 -4.96962e-17 1.98785e-16 -0 0 0 0 -7.95139e-16 0 -0 3.36241 1.20089 -0.311209 -73.9452 23.0269 54.7827 4.983 5.70909e-05 3.1249e-05 2.0169 1.20498 -71.4771 3.48356 -2.2261e-06 -2.48586e-05 -1.78102 2.51448 1.01422 0 0 0 2.38542e-15 3.18055e-15 -2.38542e-15 0.71526 0 0 1.98785e-15 0 -0 0 0 0 2.38542e-15 3.18055e-15 -2.38542e-15 0 0 0 -7.95139e-16 0 -0 -3.1366 1.37405 -0.404649 55.7834 4.31039 32.688 -5.2419 0.00185088 -0.000159433 -3.63947 8.38603 93.2148 -3.44417 -4.37204e-06 1.36871e-05 -1.47202 3.28019 9.73627 0 0 0 -9.54166e-15 -6.36111e-15 -6.36111e-15 -0.62253 -8.88178e-16 -4.44089e-16 -2.64834e-31 -4.77083e-15 -3.18055e-15 0 0 0 -9.54166e-15 -6.36111e-15 -6.36111e-15 
-0.0621733 1.98466 0.36409 0.146293 8.38994 -5.69099 0 0 0 -1.98785e-16 -1.59028e-15 7.95139e-16 1.36306 -1.79463 -7.58326e-08 -26.5702 -55.0742 -25.1455 2.44818 -6.7261 -7.42437e-05 -95.057 60.4284 127.22 2.5622 -7.0396 -5.86991e-06 10.9758 9.2696 2.76218 0.15764 -0.43311 2.32255 -8.82781e-32 6.36111e-15 7.95139e-16 0 0 0 -1.98785e-16 -1.59028e-15 7.95139e-16 -1.30552 -1.79463 -8.06114e-08 22.3775 7.19207 -6.28543 -2.54252 -6.98555 -0.000114837 -3.24951 25.6342 0.311262 -2.56825 -7.05623 -3.97964e-05 2.01992 10.9455 -1.28589 -0.16473 -0.45259 2.36315 -3.18055e-15 -3.18055e-15 -0 0 0 0 -1.98785e-16 -1.59028e-15 7.95139e-16 0.0282698 2.03559 3.27936e-08 -2.77347 9.73239 16.1658 0.05672 2.04885 -0.04275 3.97569e-16 0 -1.59028e-15 0 0 0 3.97569e-16 -3.18055e-15 -1.59028e-15 -0.0541701 1.74624 0.17202 -0.309866 -17.3722 -2.66166 0.10407 1.76136 -0.12397 1.73937e-16 1.98785e-16 1.59028e-15 0 0 0 3.97569e-16 -3.18055e-15 -1.59028e-15 3.36241 1.20089 -0.311209 -73.8213 22.9791 55.8516 4.983 5.70909e-05 3.1249e-05 1.92855 1.19153 -72.3939 3.48356 -2.2261e-06 -2.48586e-05 -3.07594 4.2876 1.94626 0 0 0 -3.97569e-16 -6.36111e-15 -0 0.71526 8.88178e-16 0 0 0 -1.59028e-15 0 0 0 -3.97569e-16 -6.36111e-15 -0 0 0 0 3.97569e-16 -3.18055e-15 -1.59028e-15 -3.1366 1.37405 -0.404649 55.24 4.72114 31.4807 -5.2419 0.00185088 -0.000159433 -3.17458 4.69432 100.537 -3.44417 -4.37204e-06 1.36871e-05 -3.33353 5.67591 17.6158 0 0 0 -3.18055e-15 -6.36111e-15 -3.18055e-15 -0.62253 0 -8.88178e-16 7.95139e-15 3.18055e-15 -6.36111e-15 0 0 0 -3.18055e-15 -6.36111e-15 -3.18055e-15 
-0.0839412 2.06832 0.377087 0.619913 8.46417 -5.38414 0 0 0 0 0 -0 1.36306 -1.79463 -7.58326e-08 -27.6663 -54.8831 -26.4974 2.44818 -6.7261 -7.42437e-05 -83.5735 62.7301 115.029 2.5622 -7.0396 -5.86991e-06 11.1552 9.30351 2.05523 0.15764 -0.43311 2.32255 3.18055e-15 3.18055e-15 1.59028e-15 0 0 0 0 0 -0 -1.30552 -1.79463 -8.06114e-08 22.4287 9.84255 -7.54049 -2.54252 -6.98555 -0.000114837 -3.81327 23.1083 0.707757 -2.56825 -7.05623 -3.97964e-05 5.6543 16.0873 -5.24182 -0.16473 -0.45259 2.36315 5.29669e-31 6.36111e-15 -4.77083e-15 0 0 0 0 0 -0 0.0282698 2.03559 3.27936e-08 -3.0867 8.44628 16.1572 0.05672 2.04885 -0.04275 7.95139e-16 0 -0 0 0 0 1.19271e-15 0 -0 -0.0541701 1.74624 0.17202 -0.307527 -16.4121 -2.80158 0.10407 1.76136 -0.12397 -2.20695e-32 -3.97569e-16 -3.18055e-15 0 0 0 1.19271e-15 0 -0 3.36241 1.20089 -0.311209 -73.9646 22.7491 56.4175 4.983 5.70909e-05 3.1249e-05 1.86921 1.19655 -72.7985 3.48356 -2.2261e-06 -2.48586e-05 -3.73184 5.18763 2.85996 0 0 0 3.97569e-16 -3.18055e-15 -7.95139e-16 0.71526 4.44089e-16 0 3.97569e-16 -3.18055e-15 -2.38542e-15 0 0 0 3.97569e-16 -3.18055e-15 -7.95139e-16 0 0 0 1.19271e-15 0 -0 -3.1366 1.37405 -0.404649 54.9709 5.31771 30.2561 -5.2419 0.00185088 -0.000159433 -2.50235 1.13752 103.647 -3.44417 -4.37204e-06 1.36871e-05 -4.96009 7.20304 23.6369 0 0 0 1.59028e-15 -6.36111e-15 -3.18055e-15 -0.62253 0 4.44089e-16 -4.77083e-15 0 3.18055e-15 0 0 0 1.59028e-15 -6.36111e-15 -3.18055e-15 
-0.0979419 2.13544 0.394576 0.777562 8.56324 -5.07142 0 0 0 2.98177e-16 -1.59028e-15 -0 1.36306 -1.79463 -7.58326e-08 -28.7813 -54.4143 -27.9012 2.44818 -6.7261 -7.42437e-05 -72.3225 63.6485 102.578 2.5622 -7.0396 -5.86991e-06 11.0915 8.77481 1.45107 0.15764 -0.43311 2.32255 -1.59028e-15 -3.18055e-15 1.59028e-15 0 0 0 2.98177e-16 -1.59028e-15 -0 -1.30552 -1.79463 -8.06114e-08 22.8698 11.8716 -8.40051 -2.54252 -6.98555 -0.000114837 -4.26214 23.1465 0.697494 -2.56825 -7.05623 -3.97964e-05 8.34727 19.9389 -7.81333 -0.16473 -0.45259 2.36315 3.18055e-15 0 -3.18055e-15 0 0 0 2.98177e-16 -1.59028e-15 -0 0.0282698 2.03559 3.27936e-08 -3.05766 7.66085 16.1579 0.05672 2.04885 -0.04275 -0 0 3.18055e-15 0 0 0 -3.97569e-16 3.18055e-15 -1.59028e-15 -0.0541701 1.74624 0.17202 -0.44082 -15.7627 -3.08999 0.10407 1.76136 -0.12397 -2.48481e-17 -1.98785e-16 -1.59028e-15 0 0 0 -3.97569e-16 3.18055e-15 -1.59028e-15 3.36241 1.20089 -0.311209 -74.1252 22.3279 56.8969 4.983 5.70909e-05 3.1249e-05 1.87433 1.20516 -73.1677 3.48356 -2.2261e-06 -2.48586e-05 -3.6372 5.3095 3.73001 0 0 0 7.95139e-16 0 -1.59028e-15 0.71526 4.44089e-16 -8.88178e-16 -7.95139e-16 0 -1.59028e-15 0 0 0 7.95139e-16 0 -1.59028e-15 0 0 0 -3.97569e-16 3.18055e-15 -1.59028e-15 -3.1366 1.37405 -0.404649 54.8904 6.14682 29.0377 -5.2419 0.00185088 -0.000159433 -2.55727 1.10729 105.553 -3.44417 -4.37204e-06 1.36871e-05 -5.79152 7.83411 27.2814 0 0 0 -3.97569e-15 -3.18055e-15 -3.18055e-15 -0.62253 0 4.44089e-16 -8.74653e-15 0 -0 0 0 0 -3.97569e-15 -3.18055e-15 -3.18055e-15 
-0.109145 2.20043 0.407775 0.832083 8.64251 -4.72284 0 0 0 1.98785e-16 0 -2.38542e-15 1.36306 -1.79463 -7.58326e-08 -29.2774 -53.83 -28.6228 2.44818 -6.7261 -7.42437e-05 -60.585 63.7238 89.2957 2.5622 -7.0396 -5.86991e-06 10.7274 7.41508 0.842961 0.15764 -0.43311 2.32255 -3.18055e-15 -3.18055e-15 -0 0 0 0 1.98785e-16 0 -2.38542e-15 -1.30552 -1.79463 -8.06114e-08 23.2498 13.3404 -9.12067 -2.54252 -6.98555 -0.000114837 -4.70025 23.4139 0.625497 -2.56825 -7.05623 -3.97964e-05 10.6393 22.8829 -9.86888 -0.16473 -0.45259 2.36315 3.18055e-15 0 -3.18055e-15 0 0 0 1.98785e-16 0 -2.38542e-15 0.0282698 2.03559 3.27936e-08 -2.98744 7.06824 16.1526 0.05672 2.04885 -0.04275 3.97569e-16 0 3.18055e-15 0 0 0 -3.97569e-16 3.18055e-15 3.18055e-15 -0.0541701 1.74624 0.17202 -0.715486 -15.2155 -3.44171 0.10407 1.76136 -0.12397 1.49089e-16 9.93923e-17 3.18055e-15 0 0 0 -3.97569e-16 3.18055e-15 3.18055e-15 3.36241 1.20089 -0.311209 -74.1329 21.8368 56.9713 4.983 5.70909e-05 3.1249e-05 1.87706 1.20901 -73.3573 3.48356 -2.2261e-06 -2.48586e-05 -3.24383 5.368 4.66603 0 0 0 1.19271e-15 -3.18055e-15 -0 0.71526 8.88178e-16 0 -7.95139e-16 0 -1.59028e-15 0 0 0 1.19271e-15 -3.18055e-15 -0 0 0 0 -3.97569e-16 3.18055e-15 3.18055e-15 -3.1366 1.37405 -0.404649 55.1117 7.20062 27.7016 -5.2419 0.00185088 -0.000159433 -2.60131 1.13542 107.503 -3.44417 -4.37204e-06 1.36871e-05 -6.30764 8.09099 29.9925 0 0 0 -1.76556e-31 1.59028e-15 6.36111e-15 -0.62253 0 -4.44089e-16 -5.56597e-15 1.59028e-15 -6.36111e-15 0 0 0 -1.76556e-31 1.59028e-15 6.36111e-15 
